<svg fill="none" height="112" viewBox="0 0 128 112" width="128" xmlns="http://www.w3.org/2000/svg"><path d="m64 0c-5.514 0-10 4.486-10 10s4.486 10 10 10 10-4.486 10-10-4.486-10-10-10zm0 4c3.308 0 6 2.692 6 6s-2.692 6-6 6-6-2.692-6-6 2.692-6 6-6zm-12.0859 18c-5.608 0-10.6611 3.3284-12.8711 8.4844l-11.5235 26.8906c-.3625.8461-.5567 1.7348-.6015 2.625h-10.918v-10c0-1.106-.896-2-2-2s-2 .894-2 2v10h-4v-10c0-1.106-.896-2-2-2s-2 .894-2 2v10h-2c-1.104 0-2 .894-2 2s.896 2 2 2h2v10c0 1.106.896 2 2 2s2-.894 2-2v-10h4v10c0 1.106.896 2 2 2s2-.894 2-2v-10h11.832c.1049.1937.2056.3882.3282.5742 1.416 2.144 3.7971 3.4258 6.3671 3.4258 2.8213 0 5.3566-1.5328 6.6915-4h5.5742l-5.7383 38.707c-.346 2.334.3408 4.698 1.8828 6.484s3.7773 2.809 6.2813 2.809c3.7119 0 6.9924-2.485 7.9804-6.043l6.7969-24.4726 6.8164 24.6136c.962 3.476 4.1541 5.902 7.9141 5.902 2.426 0 4.7227-1.051 6.3007-2.883 1.57-1.82 2.2623-4.227 1.9063-6.605-1.7432-11.6528-4.4093-29.6515-5.7227-38.512h5.5703c1.3349 2.4672 3.8683 4 6.6915 4 2.57 0 4.9511-1.2818 6.3671-3.4258.1226-.1862.2232-.3804.3282-.5742h11.832v10c0 1.106.896 2 2 2s2-.894 2-2v-10h4v10c0 1.106.896 2 2 2s2-.894 2-2v-10h2c1.104 0 2-.894 2-2s-.896-2-2-2h-2v-10c0-1.106-.896-2-2-2s-2 .894-2 2v10h-4v-10c0-1.106-.896-2-2-2s-2 .894-2 2v10h-10.918c-.045-.8899-.239-1.7789-.602-2.625l-11.523-26.8906c-2.21-5.156-7.2592-8.4844-12.8672-8.4844zm0 4h24.1718c4.006 0 7.6153 2.3766 9.1953 6.0586l11.5235 26.8945c.488 1.14.3734 2.384-.3086 3.418s-1.7834 1.6289-3.0234 1.6289c-1.38 0-2.6223-.7679-3.2383-2.0039l-10.4453-20.8906c-.416-.83-1.338-1.2627-2.25-1.0547-.902.216-1.5391 1.0212-1.5391 1.9492v14c0 .098.0074.195.0234.293 0 0 .4948 3.3289.5508 3.707h-25.1484l.5508-3.707c.016-.096.0234-.195.0234-.293v-14c0-.928-.6391-1.7313-1.5391-1.9453-.908-.21-1.834.2208-2.25 1.0508l-10.4453 20.8906c-.618 1.234-1.8583 2.0039-3.2383 2.0039-1.24 0-2.3434-.5929-3.0234-1.6289-.682-1.034-.7927-2.2819-.3047-3.4219l11.5235-26.8906c1.578-3.682 5.1874-6.0586 9.1914-6.0586zm-3.9141 24.4727v5.3828l-.6133 4.1445h-4.1484zm32 0 4.7617 9.5273h-4.1445c-.0916-.6183-.5863-3.9393-.6172-4.1484zm-29.1641 13.5273h26.3321c1.1431 7.7109 3.9747 26.8239 5.8125 39.105.182 1.224-.1764 2.467-.9844 3.407-.816.948-2.0079 1.488-3.4219 1.488-1.816 0-3.4222-1.223-3.9062-2.973l-8.7383-31.5622c-.24-.866-1.0297-1.4648-1.9297-1.4648-.898 0-1.6877.6008-1.9297 1.4648l-8.7226 31.4222c-.51 1.832-2.2094 3.113-4.2774 3.113-1.194 0-2.3255-.522-3.1055-1.426-.782-.906-1.1271-2.099-.9531-3.281z" fill="#fff"/></svg>