<svg fill="none" height="128" viewBox="0 0 128 128" width="128" xmlns="http://www.w3.org/2000/svg"><path d="m68 0c-6.6172 0-12 5.38281-12 12 0 6.6172 5.3828 12 12 12s12-5.3828 12-12c0-6.61719-5.3828-12-12-12zm0 4c4.4141 0 8 3.58594 8 8 0 4.4141-3.5859 8-8 8s-8-3.5859-8-8c0-4.41406 3.5859-8 8-8zm-11.2734 20.75c-1.3516.0703-2.711.1953-4.0704.3906l-12.875 1.8594c-3.4218.5-6.3984 2.7812-7.7578 5.9609l-5.2031 12.1407c-1.2578 2.9375-.1641 6.3828 2.5781 8.0234 1.4766.875 3.2032 1.1328 4.8594.7188 1.6641-.4219 3.0391-1.4454 3.9219-2.9219l5.1406-8.5625c.3438-.5625.9453-.9219 1.6016-.961l3.039-.1796-4.8906 19.1406c-.3125-.211-.6641-.3594-1.0703-.3594-1.1016 0-2 .8984-2 2v4c0 .1562.0547.2969.0938.4453l-4.6563 8.7344c-.9766 1.8203-2.7969 3-4.8594 3.1641l-15 1.1328c-2.2969.164-4.2969 1.4062-5.5156 3.3437-1.22656 1.961-1.44531 4.3047-.57812 6.4375 1.15622 2.9063 4.01562 4.6875 7.09372 4.5l19.6172-1.2812c5.3438-.336 10.2031-3.0157 13.3672-7.3204l7.2813-9.914 9.3984 11.2187c1.4531 1.7578 2.5781 3.7578 3.2812 5.9375l2.8204 8.5626-62.98442 6.297c-5.34375.523-9.35938 4.984-9.35938 10.344 0 5.742 4.65625 10.398 10.3984 10.398h103.6016c5.523 0 10-4.477 10-10v-50c2.203 0 4-1.7969 4-4v-15.1797c0-1.2812-.641-2.5-1.68-3.2578-1.062-.7422-2.422-.9453-3.664-.5l-29.9998 10.5781c-1.5781.5625-2.6562 2.0781-2.6562 3.7813v4.5781c0 2.2031 1.7969 4 4 4h16.375l-2.937 29.4375-19.0942 1.9219-.6641-4.0547c-.8985-5.5469-2.8828-10.7422-5.8359-15.4844l-8.086-12.9141c.1406-.2734.2422-.5781.2422-.9062v-4c0-.9375-.6641-1.6953-1.5312-1.9062l2.8515-13.1563 4.5 3.6406c2.7969 2.2969 6.6406 2.8828 10.0235 1.5469l12.3752-4.9688c2.781-1.1171 4.32-4.1328 3.601-7.0312l-.179-.7266c-.797-3.2187-4.079-5.1562-7.2816-4.375l-9.9219 2.5c-.6797.1563-1.3984-.0468-1.8984-.5468l-2.2969-2.2969c-4.2422-4.2422-9.5625-7.2578-15.3984-8.7188-3.9922-.9922-8.0547-1.3984-12.1172-1.2109zm.1796 4c3.6876-.1719 7.3594.1875 10.9688 1.0938 5.125 1.2734 9.8047 3.9374 13.5234 7.6562l2.3204 2.3203c1.4765 1.4766 3.6562 2.0781 5.6796 1.5781l9.9454-2.4765c1.0782-.2813 2.1562.375 2.4142 1.4375l.18.7422c.242.9609-.282 1.9765-1.196 2.3359l-12.3982 4.9609c-2 .7969-4.3204.461-6-.9218l-7.0235-5.6954c-.539-.4374-1.2656-.5624-1.9219-.3437-.6562.2422-1.1406.7812-1.2968 1.4609l-4.4766 20.6641c-.125.5156-.0234 1.0547.25 1.5l10.5625 16.875c2.7031 4.2813 4.4844 9 5.3047 14l.6172 3.8203-7.9375.7812-3.0781-9.3828c-.8829-2.6562-2.2422-5.1015-4.0391-7.2578l-11.0469-13.1796c-.375-.461-.9375-.7188-1.539-.7188h-.0626c-.6171.0234-1.1718.3203-1.5312.8203l-8.7812 11.9844c-2.461 3.3359-6.2657 5.4141-10.4063 5.6719l-19.5937 1.2812c-1.3829.1016-2.6407-.6953-3.1407-1.9766-.3828-.9374-.3047-1.9765.2344-2.8437.5469-.8594 1.4375-1.3984 2.4375-1.4766l15.0234-1.1406c3.4219-.2578 6.4453-2.2187 8.0625-5.2578l7.5391-14.125c.0625-.1328.1172-.2969.1562-.4375l5.4844-21.5234 4.8203-.2813c1.1016-.0547 1.9375-1.0156 1.8829-2.1172-.086-1.1015-1.0235-1.9609-2.125-1.8828l-12.0391.7031c-1.9766.1172-3.7578 1.2032-4.7813 2.9219l-5.1406 8.5391c-.3359.5625-.8594.9453-1.4766 1.1015-.6171.1563-1.2578.0625-1.8203-.2812-1.0234-.6016-1.4375-1.8985-.9843-3l5.2187-12.1406c.8203-1.8985 2.6016-3.2813 4.6485-3.5782l12.875-1.8593c1.2265-.1719 2.4609-.2969 3.6874-.3516zm67.0938 20.0703v15.1797h-30v-4.5781l17.859-6.3203 8.797-3.1016zm-112 11.1797c-1.1016 0-2 .8984-2 2v4c0 1.1016.8984 2 2 2s2-.8984 2-2v-4c0-1.1016-.8984-2-2-2zm10 0c-1.1016 0-2 .8984-2 2v4c0 1.1016.8984 2 2 2s2-.8984 2-2v-4c0-1.1016-.8984-2-2-2zm10 0c-1.1016 0-2 .8984-2 2v4c0 1.1016.8984 2 2 2s2-.8984 2-2v-4c0-1.1016-.8984-2-2-2zm20 0c-1.1016 0-2 .8984-2 2v4c0 1.1016.8984 2 2 2s2-.8984 2-2v-4c0-1.1016-.8984-2-2-2zm10 0c-1.1016 0-2 .8984-2 2v4c0 1.1016.8984 2 2 2s2-.8984 2-2v-4c0-1.1016-.8984-2-2-2zm20 0c-1.1016 0-2 .8984-2 2v4c0 1.1016.8984 2 2 2s2-.8984 2-2v-4c0-1.1016-.8984-2-2-2zm32.398 8h5.602v50c0 3.297-2.703 6-6 6h-103.6016c-3.5234 0-6.3984-2.875-6.3984-6.398 0-3.297 2.48438-6.047 5.76563-6.36l63.85937-6.398 4.0703-.406 7.3047-.743 4-.39 18.039-1.805 4.063-.398.398-4.0629zm-104.398 48c-1.10156 0-2 .898-2 2s.89844 2 2 2h88c1.1016 0 2-.898 2-2s-.8984-2-2-2zm96 0c-1.102 0-2 .898-2 2s.898 2 2 2h8c1.102 0 2-.898 2-2s-.898-2-2-2z" fill="#fff"/></svg>