<svg fill="none" height="40" viewBox="0 0 200 40" width="200" xmlns="http://www.w3.org/2000/svg"><g fill="#050505"><path d="m47.7789 28.8465h1.774c.4431 0 .6854-.1229.6854-1.0695v-11.5549c0-.9869-.1616-1.2338-.6854-1.2338h-1.774v-3.0843h3.1453c1.9754 0 3.789-.2055 4.6767-.4111v3.9478c1.2092-2.6318 3.1445-4.0712 6.1277-4.0712 3.145 0 5.1608 1.4802 5.8459 4.5645 1.0484-2.9609 3.1449-4.5645 6.4511-4.5645 4.2735 0 6.4911 2.4259 6.4911 7.813v8.594c0 .9466.2414 1.0696.6851 1.0696h1.7735v3.0843h-10.0788v-3.0843h1.4916c.4441 0 .6855-.123.6855-1.0696v-8.2645c0-3.0848-1.008-4.4415-3.2251-4.4415-2.5 0-3.7494 2.0152-3.7494 5.8396v6.8669c0 .9466.2419 1.0695.685 1.0695h1.6934v3.0843h-9.9982v-3.0843h1.4916c.4436 0 .6855-.1229.6855-1.0695v-8.6353c0-2.714-1.1286-4.0712-3.2256-4.0712-2.5 0-3.7493 2.0152-3.7493 5.8396v6.8669c0 .9466.2423 1.0695.6855 1.0695h1.5722v3.0843h-10.1599v-3.0843zm41.8048-5.8804c.1207 3.7413 1.9352 6.2094 5.6035 6.2094 2.782 0 4.3943-1.4393 5.3218-3.8652l3.065 1.3976c-1.089 3.2082-3.7498 5.7579-8.8299 5.7579-7.1362 0-10.7238-4.4007-10.7238-10.5688 0-6.2507 4.152-10.527 10.2-10.527 6.2087 0 9.6347 3.9478 9.6347 10.5683v1.0278zm-.0806-2.7961h8.8691c-.0801-4.0713-1.2898-5.6336-4.1519-5.6336-2.863 0-4.4758 1.6857-4.7172 5.6336zm23.5429-4.688c1.25-2.7553 3.507-4.112 6.652-4.112 4.153 0 6.37 2.4671 6.37 7.484v8.9234c0 .9466.242 1.0696.685 1.0696h1.774v3.0843h-10.16v-3.0843h1.573c.443 0 .685-.123.685-1.0696v-8.8004c0-2.7966-1.008-3.9887-3.225-3.9887-2.701 0-4.274 2.0556-4.274 6.538v6.2507c0 .9466.241 1.0695.685 1.0695h1.573v3.0843h-10.159v-3.0843h1.773c.444 0 .686-.1229.686-1.0695v-11.5549c0-.9869-.162-1.2338-.686-1.2338h-1.773v-3.0843h3.144c1.975 0 3.789-.2055 4.677-.4111zm18.543 10.7327v-11.2264h-2.661v-2.7548s1.654-.1234 1.532-.1234c1.371-.2469 2.258-.7814 2.419-2.26164l.403-3.61838h3.75v5.67492h3.91v3.0838h-4.031v11.1433c0 2.1799.766 2.9204 2.499 2.9204.847 0 1.371-.1651 1.855-.3289v3.1664c-.766.2464-2.096.5345-3.507.5345-4.435-.0004-6.169-1.7279-6.169-6.2098zm11.045 2.6318h1.814c.444 0 .645-.206.645-1.0695v-11.1433c0-1.2751-.201-1.6454-.887-1.6454h-1.572v-3.0838h3.225c1.976 0 3.79-.2056 4.717-.4116v16.2841c0 .8631.202 1.0695.646 1.0695h1.693v3.0839h-10.281zm1.773-22.16446c0-1.85048 1.331-3.37198 3.388-3.37198 1.975 0 3.386 1.5215 3.386 3.37198s-1.411 3.37246-3.386 3.37246c-2.057-.0005-3.388-1.52198-3.388-3.37246zm9.998 15.21456c0-6.2503 4.233-10.5271 10.562-10.5271 6.169 0 10.322 4.236 10.322 10.5271 0 6.2915-4.193 10.5688-10.483 10.5688-6.248 0-10.401-4.2355-10.401-10.5688zm15.441.2881v-.5345c0-4.8118-1.572-6.9909-4.959-6.9909-3.427 0-4.999 2.1791-4.999 6.9909v.5345c0 4.8118 1.532 6.9904 4.959 6.9904s4.999-2.2199 4.999-6.9904zm14.673-6.7027c1.25-2.7553 3.507-4.112 6.652-4.112 4.153 0 6.37 2.4671 6.37 7.484v8.9234c0 .9466.242 1.0696.685 1.0696h1.774v3.0843h-10.159v-3.0843h1.572c.443 0 .685-.123.685-1.0696v-8.8004c0-2.7966-1.008-3.9887-3.225-3.9887-2.701 0-4.274 2.0556-4.274 6.538v6.2507c0 .9466.242 1.0695.685 1.0695h1.573v3.0843h-10.161v-3.0843h1.774c.444 0 .686-.1229.686-1.0695v-11.5549c0-.9869-.162-1.2338-.686-1.2338h-1.774v-3.0843h3.145c1.976 0 3.79-.2055 4.678-.4111z"/><path d="m19.1304 0c-10.56608 0-19.1304 8.73511-19.1304 19.5122 0 10.7757 8.56432 19.5122 19.1304 19.5122 10.5661 0 19.1299-8.7365 19.1299-19.5122 0-10.77709-8.5638-19.5122-19.1299-19.5122zm8.5806 32.1724-8.5806-6.3283-8.5806 6.3283 3.2709-10.2144-8.63259-6.5012h10.68989l3.2524-10.25067 3.2524 10.25067h10.689l-8.6322 6.5012z"/></g></svg>