<svg fill="none" height="48" viewBox="0 0 200 48" width="200" xmlns="http://www.w3.org/2000/svg"><g clip-rule="evenodd" fill="#050505" fill-rule="evenodd"><path d="m118.655 0 41.909 44.3916s1.428 1.007 2.52-.1678.252-2.3497.252-2.3497z"/><path d="m131.925 4.1958 31.915 34.4056s1.427 1.007 2.519-.1678c1.092-1.1749.252-2.3497.252-2.3497z"/><path d="m122.603 13.1748 31.914 34.4056s1.428 1.007 2.52-.1678c1.092-1.1749.252-2.3497.252-2.3497z"/><path d="m143.143 7.8042 22.297 24.0371s.997.7036 1.76-.1172.176-1.6416.176-1.6416z"/><path d="m125.674 23.5806 22.297 24.0371s.997.7035 1.76-.1173c.763-.8207.176-1.6415.176-1.6415z"/><path d="m154.601 13.0068 10.106 10.9276s.493.3296.871-.055c.377-.3846.087-.7692.087-.7692z"/><path d="m131.253 34.6572 10.106 10.9276s.493.3296.871-.055c.377-.3846.087-.7692.087-.7692z"/><path d="m174.286 17.9746v29.4663h6.666v-9.5049h5l6.429 9.5049h7.619l-7.143-10.2178s6.343-2.5069 6.343-9.3069c0-9.6-8.724-9.9406-8.724-9.9406zm6.666 5.7039v8.5545h8.572s3.276-.0004 3.276-4.2776c0-4.4396-3.99-4.2769-3.99-4.2769z"/><path d="m100.476 17.9756v29.4653h22.381v-5.7029h-15.714v-6.1783h13.571v-5.7029h-13.571v-6.1828h15.714v-5.6984z"/><path d="m68.0952 17.9756v5.703h8.8096v23.7623h6.6666v-23.7623h8.8096v-5.703z"/><path d="m37.619 17.9756v29.4653h22.381v-5.7029h-15.7143v-6.1783h13.5714v-5.7029h-13.5714v-6.1828h15.7143v-5.6984z"/><path d="m0 17.9751v29.4668l6.6622-.0005v-18.5356l8.0952 11.8812 8.0997-11.8812v18.5361h6.6667v-29.4668h-6.6667l-8.0997 12.1188-8.0952-12.1188z"/></g></svg>