<svg fill="none" height="46" viewBox="0 0 200 46" width="200" xmlns="http://www.w3.org/2000/svg"><g fill="#050505"><path d="m115.996 17.8619h-7.873v.8352c2.463 0 2.859.5278 2.859 3.6507v5.63c0 3.1226-.396 3.6945-2.859 3.6945-1.89-.2637-3.166-1.2756-4.926-3.2108l-2.023-2.1989c2.727-.4844 4.178-2.1992 4.178-4.1348 0-2.4185-2.066-4.2659-5.9372-4.2659h-7.7407v.8352c2.4626 0 2.8585.5278 2.8585 3.6507v5.63c0 3.1226-.3959 3.6945-2.8585 3.6945v.8355h8.7519v-.8355c-2.4623 0-2.8582-.5719-2.8582-3.6945v-1.5829h.7474l4.8818 6.1129h12.799c6.29 0 9.017-3.3422 9.017-7.3452 0-4.0022-2.727-7.3007-9.017-7.3007zm-18.4279 7.1685v-5.8489h1.803c1.9789 0 2.8589 1.3634 2.8589 2.9467 0 1.5396-.88 2.9026-2.8589 2.9026h-1.803zm18.5609 6.1141h-.309c-1.583 0-1.803-.3956-1.803-2.4189v-9.5441h2.112c4.574 0 5.409 3.3423 5.409 5.9374 0 2.6826-.836 6.0256-5.409 6.0256zm-48.952-4.4859 3.0349-8.973c.88-2.5948.484-3.3422-2.3308-3.3422v-.88h8.2685v.88c-2.7707 0-3.4303.6596-4.53 3.8703l-5.0144 15.0419h-.5715l-4.4867-13.7667-4.5737 13.7667h-.5718l-4.8819-15.0419c-1.0555-3.2107-1.7592-3.8703-4.3103-3.8703v-.88h9.764v.88c-2.5952 0-3.2992.6155-2.3752 3.3422l2.9467 8.973 4.4422-13.1952h.836zm14.9534 6.4207c-4.8378 0-8.7963-3.5622-8.7963-7.917 0-4.31 3.9589-7.873 8.7963-7.873 4.8381 0 8.7963 3.563 8.7963 7.873 0 4.3548-3.9582 7.917-8.7963 7.917zm0-14.4256c-4.046 0-5.4537 3.65-5.4537 6.5089 0 2.9034 1.4077 6.5097 5.4537 6.5097 4.0907 0 5.4981-3.6063 5.4981-6.5097 0-2.8589-1.4074-6.5089-5.4981-6.5089z"/><path d="m135.876 31.6281v.8796h-10.072v-.8796c2.947 0 3.474-.7474 3.474-5.1463v-7.0367c0-4.3989-.527-5.1022-3.474-5.1022v-.88h9.104c4.53 0 7.038 2.3311 7.038 5.4544 0 3.0348-2.508 5.4097-7.038 5.4097h-2.507v2.1544c0 4.3993.528 5.1467 3.475 5.1467zm-.968-16.5819h-2.507v7.6534h2.507c2.463 0 3.606-1.7152 3.606-3.7823 0-2.1111-1.143-3.8711-3.606-3.8711zm37.252 13.3274-.22.7915c-.395 1.4515-.88 1.9793-4.002 1.9793h-.616c-2.287 0-2.683-.5278-2.683-3.6504v-2.023c3.431 0 3.695.3074 3.695 2.5949h.836v-6.5538h-.836c0 2.2871-.264 2.5949-3.695 2.5949v-4.9256h2.419c3.123 0 3.606.5278 4.002 1.9793l.221.8352h.703l-.307-4.1341h-12.931v.8352c2.462 0 2.858.5277 2.858 3.6507v5.63c0 2.8567-.336 3.5763-2.278 3.6789-1.845-.2819-3.112-1.2885-4.846-3.1952l-2.023-2.1989c2.727-.4844 4.178-2.1992 4.178-4.1348 0-2.4185-2.067-4.2659-5.937-4.2659h-7.741v.8352c2.463 0 2.859.5277 2.859 3.6507v5.63c0 3.1226-.396 3.6944-2.859 3.6944v.8356h8.753v-.8356c-2.463 0-2.859-.5718-2.859-3.6944v-1.583h.747l4.882 6.113h18.077l.264-4.1337h-.661zm-23.31-3.3433v-5.8489h1.803c1.98 0 2.86 1.3633 2.86 2.9467 0 1.5396-.88 2.9026-2.86 2.9026h-1.803zm32.238 8.0489c-1.759 0-3.298-.9233-3.958-1.4956-.22.2204-.616.88-.703 1.4956h-.836v-6.0689h.879c.353 2.9026 2.375 4.6178 4.97 4.6178 1.408 0 2.551-.7915 2.551-2.1108 0-1.1433-1.011-2.0233-2.814-2.8589l-2.507-1.1874c-1.76-.8363-3.079-2.2877-3.079-4.2226 0-2.1111 1.979-3.914 4.706-3.914 1.451 0 2.683.5277 3.431 1.1433.219-.1759.439-.66.572-1.1881h.835v5.1903h-.924c-.308-2.0674-1.451-3.7826-3.782-3.7826-1.231 0-2.375.7037-2.375 1.8037 0 1.1434.923 1.7589 3.035 2.7267l2.418 1.1874c2.112 1.0115 2.947 2.6396 2.947 3.9589 0 2.7704-2.419 4.7052-5.366 4.7052zm13.547 0c-1.76 0-3.299-.9233-3.959-1.4956-.22.2204-.615.88-.703 1.4956h-.836v-6.0689h.88c.351 2.9026 2.374 4.6178 4.97 4.6178 1.407 0 2.551-.7915 2.551-2.1108 0-1.1433-1.012-2.0233-2.815-2.8589l-2.507-1.1874c-1.76-.8363-3.079-2.2877-3.079-4.2226 0-2.1111 1.979-3.914 4.706-3.914 1.451 0 2.683.5277 3.431 1.1433.219-.1759.439-.66.571-1.1881h.836v5.1903h-.924c-.308-2.0674-1.451-3.7826-3.782-3.7826-1.231 0-2.375.7037-2.375 1.8037 0 1.1434.923 1.7589 3.035 2.7267l2.418 1.1874c2.112 1.0115 2.947 2.6396 2.947 3.9589 0 2.7704-2.419 4.7052-5.365 4.7052z"/><path d="m3.22519 22.6889c0 7.7044 4.4774 14.3626 10.97001 17.5178l-9.28483-25.4393c-1.08 2.4207-1.68518 5.0996-1.68518 7.9215zm32.60441-.9822c0-2.4056-.864-4.0715-1.6052-5.3682-.9866-1.6033-1.9114-2.9611-1.9114-4.5644 0-1.78928 1.357-3.45484 3.2685-3.45484.0863 0 .1681.01074.2522.01556-3.463-3.1726-8.0767-5.10963-13.1441-5.10963-6.8 0-12.78256 3.48888-16.26293 8.77331.45666.0137.88703.0234 1.25259.0234 2.03593 0 5.18744-.2471 5.18744-.2471 1.0492-.0618 1.1729 1.4793.1248 1.6033 0 0-1.0545.1241-2.2278.1856l7.0882 21.0833 4.2596-12.7751-3.0326-8.3089c-1.0482-.0615-2.0411-.1856-2.0411-.1856-1.0489-.0615-.9259-1.6652.1229-1.6033 0 0 3.2145.247 5.1271.247 2.0355 0 5.1874-.247 5.1874-.247 1.05-.0619 1.1733 1.4792.1248 1.6033 0 0-1.0567.1241-2.2278.1856l7.0341 20.9237 1.9415-6.4878c.8415-2.6922 1.4818-4.6259 1.4818-6.2922zm-12.7985 2.6848-5.84 16.97c1.7437.5126 3.5878.7929 5.4985.7929 2.2667 0 4.4404-.3918 6.4637-1.1033-.0522-.0833-.0996-.1718-.1385-.2681zm16.7378-11.0411c.0837.62.1311 1.2855.1311 2.0015 0 1.9751-.3689 4.1955-1.48 6.9718l-5.9456 17.19c5.7867-3.3744 9.6789-9.6437 9.6789-16.8244.0004-3.3841-.864-6.5663-2.3844-9.3389zm-17.0793-13.3504c-12.5107 0-22.6896 10.1781-22.6896 22.6889 0 12.5122 10.1789 22.69 22.6896 22.69 12.5104 0 22.6908-10.1778 22.6908-22.69-.0004-12.5108-10.1804-22.6889-22.6908-22.6889zm0 44.3389c-11.937 0-21.64923-9.7122-21.64923-21.65 0-11.937 9.71183-21.64853 21.64923-21.64853 11.9367 0 21.6482 9.71153 21.6482 21.64853 0 11.9378-9.7115 21.65-21.6482 21.65z"/></g></svg>