<svg fill="none" height="55" viewBox="0 0 200 55" width="200" xmlns="http://www.w3.org/2000/svg"><g clip-rule="evenodd" fill-rule="evenodd"><g fill="#050505"><path d="m58.8281 40.1563v-24.6094h3.1641l15.039 19.8047v-19.8047h3.0079v24.6094h-3.1641l-15.0391-20.0001v20.0001z"/><path d="m104.531 39.1797c-1.992.7422-4.14 1.1328-6.406 1.1328-8.9063 0-13.3594-4.2578-13.3594-12.8125 0-8.0859 4.2969-12.1484 12.8906-12.1484 2.4608 0 4.7658.3515 6.8748 1.0156v2.7344c-2.109-.8204-4.297-1.211-6.5232-1.211-6.7187 0-10.0781 3.2032-10.0781 9.5313 0 6.8359 3.3203 10.2343 9.9219 10.2343 1.0546 0 2.2264-.1562 3.5154-.4296v-8.2422h3.164z"/><path d="m109.609 30.6641v-15.1172h3.164v15.1172c0 4.7265 2.344 7.1093 7.071 7.1093 4.687 0 7.07-2.3828 7.07-7.1093v-15.1172h3.164v15.1172c0 6.4453-3.398 9.6875-10.234 9.6875s-10.235-3.2422-10.235-9.6875z"/><path d="m138.906 15.5469v22.0312h12.891v2.5782h-16.055v-24.6094z"/><path d="m156.367 40.1562h-3.32l12.226-27.8515 12.227 27.8515h-3.516l-3.164-7.7343h-8.125l.86-2.5781h6.211l-4.61-11.1329z"/><path d="m180.898 40.1563v-24.6094h10.508c4.688 0 7.031 1.9531 7.031 5.8984 0 3.2031-2.304 5.5859-6.875 7.1094l8.438 11.6016h-4.18l-7.812-11.0547v-2.0703c4.687-.7422 7.07-2.5391 7.07-5.4297 0-2.2657-1.289-3.3985-3.906-3.3985h-7.031v21.9532z"/><path d="m0 8.98437 25.1953-8.98437 25.8594 8.82812-4.1797 33.32028-21.6797 11.9922-21.32811-11.8359z"/><path d="m51.0547 8.82812-25.8594-8.82812v54.1406l21.6797-11.9922z"/></g><path d="m25.2344 6.32812-15.70315 34.92188 5.85935-.1172 3.1641-7.8906h6.6797 7.3437l3.4375 7.9687 5.586.1172zm.039 11.21098 5.3125 11.0937h-5.0781-.2734-4.6094z" fill="#fff"/></g></svg>