<svg fill="none" height="40" width="123" xmlns="http://www.w3.org/2000/svg" xmlns:xlink="http://www.w3.org/1999/xlink"><linearGradient id="a"><stop offset="0" stop-color="#9e00ff"/><stop offset="1" stop-color="#f09"/></linearGradient><linearGradient id="b" gradientUnits="userSpaceOnUse" x1="8.555" x2="8.555" xlink:href="#a" y1="15.834" y2="40"/><linearGradient id="c" gradientUnits="userSpaceOnUse" x1="27.917" x2="27.917" xlink:href="#a" y1="22.889" y2="40"/><linearGradient id="d" gradientUnits="userSpaceOnUse" x1="31.445" x2="31.445" xlink:href="#a" y1="0" y2="24.166"/><linearGradient id="e" gradientUnits="userSpaceOnUse" x1="12.083" x2="12.083" xlink:href="#a" y1="0" y2="17.11"/><path d="M64.072 29.192c2.376 0 4.392-1.224 5.112-3.024V29h2.256v-5.952c0-1.8-1.584-2.832-2.904-2.832h-4.272v2.016h3.648c.696 0 1.128.456 1.128 1.104 0 2.184-2.328 3.72-4.896 3.72-3.288 0-5.712-2.352-5.712-6.456s2.424-6.384 5.736-6.384c2.472 0 4.392 1.416 4.728 3.456h2.592c-.336-3.312-3.36-5.664-7.32-5.664-4.248 0-8.232 2.856-8.232 8.592s3.936 8.592 8.136 8.592zm18.704-4.128c-.336 1.368-1.488 2.136-3.264 2.136-2.112 0-3.6-1.56-3.792-3.84h9.24c.024-.216.048-.6.048-.912 0-3.072-1.992-5.736-5.736-5.736-3.72 0-5.832 2.784-5.832 6.168 0 3.36 2.328 6.312 6.072 6.312 2.976 0 5.16-1.632 5.592-4.128zm-3.504-6.48c1.992 0 3.24 1.224 3.384 3.072h-6.864c.36-2.016 1.584-3.072 3.48-3.072zm9.335-5.472v3.792h-2.472v2.016h2.472v6.12c0 2.472 1.56 3.96 4.008 3.96h1.896v-2.016h-1.704c-1.176 0-1.872-.72-1.872-2.016V18.92h3.576v-2.016h-3.576v-3.792zM96.712 29h2.496v-7.368h6.696v-2.208h-6.696v-5.016h8.28V12.2H96.712zm12.999-17.16v2.928h2.592V11.84zm.144 17.16h2.328V16.904h-2.328zm6.666-15.888v3.792h-2.472v2.016h2.472v6.12c0 2.472 1.56 3.96 4.008 3.96h1.896v-2.016h-1.704c-1.176 0-1.872-.72-1.872-2.016V18.92h3.576v-2.016h-3.576v-3.792z" fill="#fff"/><path d="M12.5 27.916c0-4.293 1.768-8.18 4.61-10.978a12.007 12.007 0 00-5.026-1.105C5.41 15.833 0 21.243 0 27.916 0 34.59 5.41 40 12.084 40c1.797 0 3.494-.402 5.026-1.105a15.366 15.366 0 01-4.61-10.979z" fill="url(#b)"/><path d="M27.916 27.5c-4.293 0-8.18-1.768-10.978-4.611a12.02 12.02 0 00-1.105 5.027C15.833 34.59 21.243 40 27.916 40 34.59 40 40 34.59 40 27.916c0-1.797-.402-3.494-1.105-5.027A15.361 15.361 0 0127.916 27.5z" fill="url(#c)"/><path d="M27.916 0c-1.797 0-3.494.402-5.027 1.105A15.361 15.361 0 0127.5 12.084c0 4.293-1.768 8.18-4.611 10.978a12.02 12.02 0 005.027 1.105C34.59 24.167 40 18.757 40 12.084 40 5.41 34.59 0 27.916 0z" fill="url(#d)"/><path d="M12.084 12.5c4.293 0 8.18 1.768 10.978 4.61a12.007 12.007 0 001.105-5.026C24.167 5.41 18.757 0 12.084 0 5.41 0 0 5.41 0 12.084c0 1.797.402 3.494 1.105 5.026a15.366 15.366 0 0110.979-4.61z" fill="url(#e)"/></svg>