<svg fill="none" height="118" viewBox="0 0 76 118" width="76" xmlns="http://www.w3.org/2000/svg"><path d="m13.6523 0c-3.2011 0-5.6523 2.80408-5.6523 6 0 2.11598 1.08693 4.0409 2.7422 5.1133l-8.37111 11.7226c-.0066.0104-.01311.0208-.01953.0313-2.162439 3.1398-2.35156 5.8272-2.35156 9.3047v70.7811c0 1.893.666469 3.724 1.89453 5.156l6.20703 7.243c1.43014 1.67 3.51044 2.644 5.69924 2.644h48.3047c2.2609 0 4.3998-1.04 5.832-2.801l6.3008-7.757c.0013-.002.0026-.003.0039-.004 1.1399-1.409 1.7578-3.174 1.7578-4.996v-70.438c0-3.3747-.3736-6.059-2.3164-9.082-.0176-.0278-.0358-.0552-.0547-.0821l-8.3711-11.7226c1.6553-1.0724 2.7422-2.99732 2.7422-5.1133 0-3.19592-2.4512-6-5.6523-6zm0 4h48.6954c.8308 0 1.6523.77992 1.6523 2s-.8215 2-1.6523 2h-10.3477c-.265-.00375-.5281.04521-.7741.14404-.2459.09883-.4698.24555-.6585.43164s-.3386.40783-.4409.65235c-.1023.24451-.155.50692-.155.77197 0 .265.0527.5275.155.772s.2522.4662.4409.6523.4126.3328.6585.4317c.246.0988.5091.1477.7741.144h8.9688l9.3554 13.0977c1.5422 2.4054 1.6758 3.7409 1.6758 6.9023v70.438c0 .546-.1235 1.074-.332 1.562h-67.51175c-.09224-.338-.15625-.687-.15625-1.047v-70.7811c0-3.4205-.05176-4.5602 1.64453-7.0274.003-.0044.00081-.0073.00391-.0117l9.38276-13.1328h28.9688c.265.0037.5281-.0452.7741-.144.2459-.0989.4698-.2456.6585-.4317s.3386-.4078.4409-.6523.155-.507.155-.772c0-.26505-.0527-.52746-.155-.77197-.1023-.24452-.2522-.46626-.4409-.65235s-.4126-.33281-.6585-.43164c-.246-.09883-.5091-.14779-.7741-.14404h-29.6953c-.0918-.01424-.1845-.02207-.2774-.02344-.1007.00023-.2012.00807-.3007.02344h-.0743c-.8308 0-1.6523-.77992-1.6523-2s.8215-2 1.6523-2zm-1.6523 16c-1.2 0-2 .8-2 2v4c0 1.2.8 2 2 2s2-.8 2-2v-4c0-1.2-.8-2-2-2zm10 0c-1.2 0-2 .8-2 2v4c0 1.2.8 2 2 2s2-.8 2-2v-4c0-1.2-.8-2-2-2zm10 0c-1.2 0-2 .8-2 2v4c0 1.2.8 2 2 2s2-.8 2-2v-4c0-1.2-.8-2-2-2zm12 0c-1.2 0-2 .8-2 2v4c0 1.2.8 2 2 2s2-.8 2-2v-4c0-1.2-.8-2-2-2zm10 0c-1.2 0-2 .8-2 2v4c0 1.2.8 2 2 2s2-.8 2-2v-4c0-1.2-.8-2-2-2zm10 0c-1.2 0-2 .8-2 2v4c0 1.2.8 2 2 2s2-.8 2-2v-4c0-1.2-.8-2-2-2zm-30 26c-.3417.0002-.6776.0879-.9757.2547-.2981.1669-.5486.4073-.7274.6984l-16 26c-.1861.303-.288.6502-.2953 1.0057s.0803.7066.2538 1.0169c.1735.3104.4266.569.7333.749.3066.18.6557.2751 1.0113.2753h9.2227l-3.1211 9.3672c-.1321.3955-.1372.8224-.0146 1.221.1225.3986.3665.7489.6979 1.002.3314.253.7336.3962 1.1504.4094.4168.0133.8273-.104 1.1741-.3355l30-20c.357-.2382.6279-.5849.7727-.9889.1449-.404.1559-.8439.0315-1.2546-.1243-.4108-.3775-.7706-.7221-1.0264s-.7623-.394-1.1915-.3942h-9.9141l11.4922-14.7734c.2294-.2956.3713-.6495.4096-1.0216.0383-.3722-.0286-.7476-.1929-1.0836-.1644-.3361-.4197-.6193-.737-.8175-.3172-.1982-.6837-.3035-1.0578-.3039zm1.1172 4h16.7969l-11.4922 14.7734c-.2294.2956-.3713.6495-.4096 1.0216-.0383.3722.0286.7476.1929 1.0836.1644.3361.4197.6193.737.8175.3172.1982.6837.3035 1.0578.3039h7.3945l-19.6523 13.1016 2.1562-6.4688c.1003-.3007.1276-.621.0798-.9344s-.1695-.6109-.3549-.8681c-.1854-.2571-.4293-.4665-.7115-.6109-.2823-.1443-.5948-.2195-.9118-.2194h-8.4219zm-28.04689 58h61.55859l-3.7969 4.672c-.6957.853-1.6886 1.324-2.7265 1.324h-48.3047c-1.0073 0-1.9703-.44-2.6602-1.246z" fill="#fff"/></svg>